<svg xmlns="http://www.w3.org/2000/svg" viewBox="0 0 128 85" fill="#fb661e">
  <g clip-path="url(#clip0)">
    <path d="M50.9199 54.92C48.3599 52.37 46.5699 49.05 45.9299 45.35C45.7599 44.34 45.6699 43.3 45.6699 42.24C45.6699 41.18 45.7599 40.14 45.9299 39.13C46.5699 35.43 48.3499 32.11 50.9199 29.56C54.1799 26.25 58.6999 24.22 63.6999 24.22C65.6399 24.22 67.5199 24.53 69.2799 25.11C69.7599 25.27 70.2599 25.45 70.7199 25.65C72.8899 26.57 74.8399 27.89 76.4699 29.56C77.0299 30.09 77.5399 30.68 78.0099 31.3C78.7999 32.33 79.4899 33.43 80.0299 34.61C80.1399 34.86 80.2499 35.09 80.3399 35.32C80.5399 35.82 80.7299 36.3 80.8799 36.81C81.1299 37.56 81.3099 38.33 81.4499 39.12C81.6199 40.13 81.7099 41.17 81.7099 42.23C81.7099 43.29 81.6199 44.33 81.4499 45.34C81.3099 46.13 81.1199 46.91 80.8799 47.65C80.7199 48.16 80.5399 48.64 80.3399 49.14C80.2499 49.37 80.1399 49.61 80.0299 49.85C79.4899 51.03 78.7999 52.13 78.0099 53.16C77.5399 53.78 77.0299 54.37 76.4699 54.9C74.8399 56.58 72.8999 57.9 70.7199 58.81C70.2499 59.01 69.7599 59.2 69.2799 59.35C67.5199 59.92 65.6499 60.24 63.6999 60.24C58.6999 60.27 54.1799 58.23 50.9199 54.92Z" />
    <path d="M127.52 0V39.16H87.71C86.19 27.26 75.98 18.04 63.68 18.04C51.38 18.04 41.17 27.27 39.65 39.16H0V0H127.52Z" />
    <path d="M87.71 45.37L127.52 45.25V84.5H0V45.37H39.65C41.17 57.27 51.38 66.49 63.68 66.49C75.98 66.49 86.19 57.27 87.71 45.37Z" />
  </g>
  <defs>
    <clipPath id="clip0">
      <rect width="127.52" height="84.5" fill="white" />
    </clipPath>
  </defs>
</svg>
